<svg width="160" height="35" viewBox="0 0 160 35" fill="none" xmlns="http://www.w3.org/2000/svg">
<path d="M17.9327 34.855C14.9627 34.855 12.3677 34.345 10.1477 33.325C7.95768 32.275 6.14268 30.91 4.70268 29.23C3.26268 27.52 2.18268 25.675 1.46268 23.695C0.772676 21.715 0.427676 19.81 0.427676 17.98V16.99C0.427676 14.95 0.787676 12.94 1.50768 10.96C2.25768 8.95 3.36768 7.135 4.83768 5.515C6.30768 3.895 8.13768 2.605 10.3277 1.645C12.5177 0.654998 15.0527 0.159998 17.9327 0.159998C20.8127 0.159998 23.3477 0.654998 25.5377 1.645C27.7277 2.605 29.5577 3.895 31.0277 5.515C32.4977 7.135 33.6077 8.95 34.3577 10.96C35.1077 12.94 35.4827 14.95 35.4827 16.99V17.98C35.4827 19.81 35.1227 21.715 34.4027 23.695C33.6827 25.675 32.6027 27.52 31.1627 29.23C29.7227 30.91 27.8927 32.275 25.6727 33.325C23.4827 34.345 20.9027 34.855 17.9327 34.855ZM17.9327 27.97C19.4927 27.97 20.8877 27.7 22.1177 27.16C23.3777 26.62 24.4427 25.87 25.3127 24.91C26.2127 23.95 26.8877 22.84 27.3377 21.58C27.7877 20.32 28.0127 18.97 28.0127 17.53C28.0127 16 27.7727 14.605 27.2927 13.345C26.8427 12.055 26.1677 10.945 25.2677 10.015C24.3977 9.055 23.3477 8.32 22.1177 7.81C20.8877 7.3 19.4927 7.045 17.9327 7.045C16.3727 7.045 14.9777 7.3 13.7477 7.81C12.5177 8.32 11.4527 9.055 10.5527 10.015C9.68268 10.945 9.02268 12.055 8.57268 13.345C8.12268 14.605 7.89768 16 7.89768 17.53C7.89768 18.97 8.12268 20.32 8.57268 21.58C9.02268 22.84 9.68268 23.95 10.5527 24.91C11.4527 25.87 12.5177 26.62 13.7477 27.16C14.9777 27.7 16.3727 27.97 17.9327 27.97ZM41.0743 34V0.879997H48.4543V34H41.0743ZM61.0093 34L51.3793 19.87H59.4793L69.5593 34H61.0093ZM46.4743 23.47V17.665H54.5743C55.6543 17.665 56.5843 17.455 57.3643 17.035C58.1743 16.585 58.7893 15.97 59.2093 15.19C59.6593 14.38 59.8843 13.45 59.8843 12.4C59.8843 11.35 59.6593 10.435 59.2093 9.655C58.7893 8.845 58.1743 8.23 57.3643 7.81C56.5843 7.36 55.6543 7.135 54.5743 7.135H46.4743V0.879997H53.9893C56.7193 0.879997 59.0893 1.3 61.0993 2.14C63.1093 2.95 64.6543 4.165 65.7343 5.785C66.8143 7.405 67.3543 9.445 67.3543 11.905V12.625C67.3543 15.055 66.7993 17.08 65.6893 18.7C64.6093 20.29 63.0643 21.49 61.0543 22.3C59.0743 23.08 56.7193 23.47 53.9893 23.47H46.4743ZM74.0354 34V1.15H81.4154V34H74.0354ZM104.637 34.855C101.667 34.855 99.0718 34.345 96.8518 33.325C94.6618 32.275 92.8468 30.91 91.4068 29.23C89.9668 27.52 88.8868 25.675 88.1668 23.695C87.4768 21.715 87.1318 19.81 87.1318 17.98V16.99C87.1318 14.95 87.4918 12.94 88.2118 10.96C88.9618 8.95 90.0718 7.135 91.5418 5.515C93.0118 3.895 94.8418 2.605 97.0318 1.645C99.2218 0.654998 101.757 0.159998 104.637 0.159998C107.517 0.159998 110.052 0.654998 112.242 1.645C114.432 2.605 116.262 3.895 117.732 5.515C119.202 7.135 120.312 8.95 121.062 10.96C121.812 12.94 122.187 14.95 122.187 16.99V17.98C122.187 19.81 121.827 21.715 121.107 23.695C120.387 25.675 119.307 27.52 117.867 29.23C116.427 30.91 114.597 32.275 112.377 33.325C110.187 34.345 107.607 34.855 104.637 34.855ZM104.637 27.97C106.197 27.97 107.592 27.7 108.822 27.16C110.082 26.62 111.147 25.87 112.017 24.91C112.917 23.95 113.592 22.84 114.042 21.58C114.492 20.32 114.717 18.97 114.717 17.53C114.717 16 114.477 14.605 113.997 13.345C113.547 12.055 112.872 10.945 111.972 10.015C111.102 9.055 110.052 8.32 108.822 7.81C107.592 7.3 106.197 7.045 104.637 7.045C103.077 7.045 101.682 7.3 100.452 7.81C99.2218 8.32 98.1568 9.055 97.2568 10.015C96.3868 10.945 95.7268 12.055 95.2768 13.345C94.8268 14.605 94.6018 16 94.6018 17.53C94.6018 18.97 94.8268 20.32 95.2768 21.58C95.7268 22.84 96.3868 23.95 97.2568 24.91C98.1568 25.87 99.2218 26.62 100.452 27.16C101.682 27.7 103.077 27.97 104.637 27.97ZM127.778 34V1.15H139.883L152.258 28.015H153.788L152.888 28.825V1.15H159.818V34H147.623L135.248 7.135H133.718L134.618 6.325V34H127.778Z" fill="#12153A"/>
</svg>
